PathFileType	4	(X/Y/Z)	C:\Users\Basilio\Documents\Thesis Gigler\squatting_fais\c3dfiles\054\SLS_front_pre2\markers_experimental.trc
DataRate	CameraRate	NumFrames	NumMarkers	Units	OrigDataRate	OrigDataStartFrame	OrigNumFrames
200.000000	200.000000	4	61	mm	200.000000	730	1461
Frame#	Time	FHD			LBHD			RBHD			C7			T10			CLAV			LSHO			LUUPA			LMUPA			LDUPA			LLEP			LMEP			LRAD			LUL			LRFIN			RSHO			RUPA1			RMUPA			RDUPA			RLEP			RMEP			RRAD			RUL			RUFIN			LASI			RASI			USACR			LSACR			RSACR			LTHI1			LTHI2			LTHI3			LTHI4			LLFC			LMFC			LTIB1			LTIB2			LTIB3			LTIB4			LLMAL			LMMAL			LHEE			LMT1			LMT2			LMT5			RTHI			RTHI2			RTHI3			RTHI4			RLFC			RMFC			RTIB1			RTIB2			RTIB3			RTIB4			RLMAL			RMMAL			RHEE			RMT1			RMT2			RMT5			
		X1	Y1	Z1	X2	Y2	Z2	X3	Y3	Z3	X4	Y4	Z4	X5	Y5	Z5	X6	Y6	Z6	X7	Y7	Z7	X8	Y8	Z8	X9	Y9	Z9	X10	Y10	Z10	X11	Y11	Z11	X12	Y12	Z12	X13	Y13	Z13	X14	Y14	Z14	X15	Y15	Z15	X16	Y16	Z16	X17	Y17	Z17	X18	Y18	Z18	X19	Y19	Z19	X20	Y20	Z20	X21	Y21	Z21	X22	Y22	Z22	X23	Y23	Z23	X24	Y24	Z24	X25	Y25	Z25	X26	Y26	Z26	X27	Y27	Z27	X28	Y28	Z28	X29	Y29	Z29	X30	Y30	Z30	X31	Y31	Z31	X32	Y32	Z32	X33	Y33	Z33	X34	Y34	Z34	X35	Y35	Z35	X36	Y36	Z36	X37	Y37	Z37	X38	Y38	Z38	X39	Y39	Z39	X40	Y40	Z40	X41	Y41	Z41	X42	Y42	Z42	X43	Y43	Z43	X44	Y44	Z44	X45	Y45	Z45	X46	Y46	Z46	X47	Y47	Z47	X48	Y48	Z48	X49	Y49	Z49	X50	Y50	Z50	X51	Y51	Z51	X52	Y52	Z52	X53	Y53	Z53	X54	Y54	Z54	X55	Y55	Z55	X56	Y56	Z56	X57	Y57	Z57	X58	Y58	Z58	X59	Y59	Z59	X60	Y60	Z60	X61	Y61	Z61	

731	3.65	-142.6778869628907	1507.94580078125	-1113.68994140625	-304.5107727050782	1458.784912109375	-1186.436645507813	-324.2010192871094	1461.252319335938	-1047.068359375	-366.4609680175782	1317.9833984375	-1097.090942382813	-504.7033996582032	1018.231018066406	-1076.140991210938	-243.351058959961	1225.759399414063	-1110.16162109375	-288.7563171386719	1306.471801757813	-1248.656005859375	-159.3444366455078	1187.015991210938	-1386.985473632813	-123.7313079833985	1218.28857421875	-1373.396362304688	-92.14670562744142	1174.56884765625	-1400.480590820313	-35.04033660888673	1175.398559570313	-1401.867919921875	-35.06731796264649	1107.9462890625	-1360.529541015625	227.711410522461	1174.552978515625	-1346.475952148438	234.5496063232422	1148.544799804688	-1420.053833007813	316.9093017578126	1193.37646484375	-1372.923828125	-273.6955871582032	1304.496704101563	-965.253356933594	-127.4278640747071	1200.481079101563	-831.1675415039065	-93.00340270996095	1231.592895507813	-842.409606933594	-59.67602539062501	1186.7119140625	-816.3735961914065	-14.92004871368409	1182.768188476563	-817.4489746093752	-13.98404979705811	1125.558959960938	-866.813903808594	247.2386322021485	1253.66845703125	-909.2766723632815	252.1279296875001	1213.419189453125	-841.484802246094	322.7763977050782	1285.408569335938	-891.3217773437502	-366.2258300781251	817.1556396484377	-1180.699829101563	-349.9574584960938	855.036071777344	-934.3758544921877	-535.4315185546876	918.1115722656252	-1059.508544921875	-545.7887573242189	882.8875122070315	-1083.49560546875	-540.4011840820314	889.0794677734377	-1027.054443359375	-327.2482910156251	608.4192504882814	-1250.489013671875	-245.8677978515626	581.0916137695314	-1251.951904296875	-216.6965026855469	618.6051025390626	-1249.913696289063	-223.4050598144532	527.1420288085939	-1236.2470703125	-122.5945816040039	436.1599426269532	-1210.178955078125	-88.34488677978517	466.7049865722657	-1077.661743164063	-138.3635711669922	298.1200866699219	-1121.513793945313	-204.6384429931641	265.3405456542969	-1171.022094726563	-174.431137084961	255.0584106445313	-1141.228759765625	-216.2138366699219	202.5588684082032	-1089.844482421875	-335.8952636718751	105.5270385742188	-1106.950805664063	-298.5197143554688	137.6100158691407	-1019.693420410156	-406.4715881347657	105.943717956543	-1040.877319335938	-197.984115600586	59.13600921630861	-1021.206298828125	-189.6905364990235	53.36391830444337	-1069.988403320313	-242.2528076171876	35.53909301757813	-1119.485717773438	-226.2730407714844	659.3124389648439	-827.6896972656252	-159.8722839355469	666.7495117187501	-833.0749511718752	-144.5441436767578	694.5267333984376	-843.4359130859377	-105.9594039916992	603.0314941406251	-844.2918090820315	-47.8572006225586	544.2356567382814	-849.2398681640627	-22.04557800292969	574.0572509765626	-979.8129882812502	47.87458801269532	475.8174133300782	-858.0955810546877	15.37189960479737	379.0281677246094	-826.6304321289065	58.85291290283205	391.7752990722657	-836.6879882812502	91.52210998535158	352.9565124511719	-864.1230468750002	107.189079284668	169.27685546875	-848.3142700195315	141.3461303710938	196.2068176269532	-932.2317504882815	69.22542572021486	113.7288970947266	-909.0742187500002	283.8387145996094	173.3216857910157	-903.8515625000002	281.2105712890626	184.1910095214844	-857.253601074219	237.363021850586	151.7810516357422	-810.9122314453127	
732	3.655	-142.3948364257813	1506.662231445313	-1113.660034179688	-304.4063415527344	1457.5810546875	-1186.22509765625	-323.6197814941407	1459.881958007813	-1046.986938476563	-366.2224731445313	1316.988525390625	-1096.899047851563	-504.465301513672	1017.163024902344	-1075.9853515625	-243.1512603759766	1224.63720703125	-1110.13916015625	-288.4091491699219	1305.427978515625	-1248.486450195313	-159.6355895996094	1186.389038085938	-1386.730224609375	-123.4966354370117	1217.325073242188	-1373.130126953125	-91.73046875000001	1173.696166992188	-1400.219116210938	-34.69055557250977	1174.411376953125	-1401.582885742188	-34.7893295288086	1107.330688476563	-1360.278686523438	228.0161132812501	1173.725830078125	-1346.182006835938	235.0501251220704	1147.6259765625	-1419.696533203125	317.1310729980469	1192.501220703125	-1372.447998046875	-273.3301696777344	1303.313598632813	-965.0513916015627	-127.0146865844727	1199.121826171875	-831.1787109375002	-92.43564605712892	1230.515502929688	-842.4764404296877	-59.0231285095215	1185.490966796875	-816.4561157226565	-14.35539150238037	1181.72314453125	-817.7028808593752	-13.55278778076172	1124.413696289063	-866.884704589844	247.0493927001954	1253.262329101563	-909.6665649414065	252.8156127929688	1212.278686523438	-841.812927246094	323.2068176269532	1284.2861328125	-891.4649047851565	-366.5571899414063	816.2605590820315	-1180.278686523438	-349.9443664550782	854.017028808594	-934.4617309570315	-535.2199096679689	917.0408935546877	-1059.346801757813	-545.8500366210939	881.9166259765627	-1083.523193359375	-540.3341064453126	887.8840942382815	-1026.87255859375	-327.0465393066407	607.4869384765626	-1250.470458984375	-245.7135620117188	580.4868164062501	-1251.843505859375	-216.460433959961	617.9070434570314	-1249.862670898438	-222.9480743408204	526.4869384765626	-1236.091186523438	-122.1081237792969	435.6780395507814	-1210.01904296875	-87.83908843994142	466.4442749023439	-1077.564453125	-138.1392059326172	297.9666748046876	-1121.228271484375	-204.1708068847657	265.0605163574219	-1170.85595703125	-173.7960510253907	254.7736206054688	-1140.966430664063	-215.699447631836	202.3374176025391	-1089.66748046875	-335.7639465332032	105.6852722167969	-1106.745849609375	-298.4943847656251	137.5380096435547	-1019.368408203125	-406.4672241210939	105.9551162719727	-1040.78515625	-197.9279479980469	59.02042388916017	-1021.028259277344	-189.6835479736328	53.26442718505861	-1069.831420898438	-242.2430572509766	35.55967330932618	-1119.385009765625	-225.9008331298829	658.6152343750001	-827.7566528320315	-159.608627319336	666.1543579101564	-833.1433105468752	-144.225082397461	694.0209350585939	-843.5408325195315	-105.4279708862305	602.4652099609376	-844.4364013671877	-47.66360473632813	543.7979736328126	-849.3862915039065	-21.60340690612793	573.6825561523439	-979.909118652344	48.36272048950197	475.4077148437501	-858.205261230469	15.84241580963135	378.7479248046876	-826.8594970703127	59.31307220458986	391.339080810547	-836.8352661132815	92.33999633789064	352.5602416992188	-864.5745239257815	107.8677291870117	168.8622436523438	-848.6616821289065	141.8487243652344	195.8714599609376	-932.5725097656252	69.72979736328126	113.4007797241211	-909.384460449219	284.4586181640626	173.0636596679688	-904.2407836914065	281.8060302734376	183.9250183105469	-857.6947021484377	237.9527740478516	151.4302368164063	-811.2666625976565	
733	3.66	-141.9864196777344	1505.623291015625	-1113.535888671875	-304.1874389648438	1456.384399414063	-1186.08740234375	-323.7120361328126	1458.799560546875	-1046.69677734375	-365.9126892089844	1315.6845703125	-1096.66455078125	-504.4872436523439	1016.038146972656	-1075.905151367188	-242.9446411132813	1223.473754882813	-1109.992065429688	-288.2474975585938	1304.394775390625	-1248.280639648438	-158.5291137695313	1185.34619140625	-1386.803955078125	-123.0376205444336	1216.564697265625	-1372.882690429688	-91.63014984130861	1173.056762695313	-1399.856323242188	-34.27441024780274	1173.537353515625	-1401.3505859375	-34.61066055297852	1106.470581054688	-1359.879638671875	228.0395965576172	1172.579956054688	-1345.854248046875	235.0249786376954	1146.904174804688	-1419.136108398438	317.3102722167969	1191.566284179688	-1371.947631835938	-273.0685119628907	1302.136840820313	-965.0596313476565	-126.5038375854492	1198.05419921875	-831.3536376953127	-92.15007781982423	1229.138061523438	-842.552673339844	-58.87044906616212	1184.389038085938	-816.896667480469	-13.92170238494873	1180.387573242188	-818.796081542969	-12.97254085540772	1123.251953125	-867.1094970703127	247.519760131836	1252.057861328125	-909.6523437500002	253.3042449951172	1211.220336914063	-841.9653320312502	323.7396545410157	1283.20068359375	-891.7030029296877	-366.6721801757813	815.1625976562502	-1180.21826171875	-349.7489318847657	852.875183105469	-934.3086547851565	-535.2907714843751	916.0167236328127	-1059.320190429688	-545.8569335937501	880.8061523437502	-1083.27099609375	-540.3221435546876	886.938903808594	-1026.839599609375	-326.8302001953126	606.6876831054689	-1250.2861328125	-245.4958801269532	580.2448730468751	-1251.701293945313	-216.0438079833985	617.1478881835939	-1249.86669921875	-222.5318908691407	525.7091674804689	-1236.017578125	-121.7170867919922	435.2479858398439	-1209.686157226563	-87.51632690429689	466.2152099609376	-1077.495361328125	-137.9203796386719	297.7895812988282	-1120.871826171875	-203.6618957519532	264.8766174316407	-1170.5458984375	-173.4874114990235	254.1203308105469	-1140.67431640625	-215.5067901611329	202.1747283935547	-1089.403076171875	-335.7303161621094	105.8369369506836	-1106.607055664063	-298.4338378906251	137.5386352539063	-1019.103454589844	-406.4628295898439	105.9619522094727	-1040.674682617188	-197.9484863281251	58.92227172851564	-1020.911560058594	-189.167236328125	53.10164260864259	-1069.473022460938	-242.6357574462891	35.89116668701173	-1119.395629882813	-225.5941467285157	657.8081665039064	-827.8775634765627	-159.314682006836	665.4140625000001	-833.227722167969	-143.795394897461	693.4447631835939	-843.615417480469	-105.2005157470703	601.9828491210939	-844.4341430664065	-47.05836868286134	543.4979858398439	-849.634948730469	-20.85106849670411	573.1638183593751	-980.0106201171877	48.70046997070314	475.0980529785157	-858.2633056640627	16.16647911071778	378.4306945800782	-827.0061645507815	59.75690841674806	390.8784179687501	-837.0864868164065	92.77410888671876	352.1390380859376	-864.8518676757815	108.4848709106446	168.4475708007813	-849.057800292969	142.3169250488282	195.617904663086	-932.9317016601565	70.01912689208986	113.1473770141602	-909.5750732421877	284.9049072265626	172.8206481933594	-904.5736083984377	282.2621154785157	183.6242370605469	-858.1368408203127	238.2997283935547	151.0951080322266	-811.648132324219	
734	3.665	-141.6773071289063	1504.364379882813	-1113.570556640625	-304.1454467773438	1455.224487304688	-1185.8369140625	-323.2803649902344	1457.534057617188	-1046.568481445313	-365.6736450195313	1314.875732421875	-1096.5078125	-504.399139404297	1015.056579589844	-1075.77587890625	-242.7894744873047	1222.288818359375	-1109.884521484375	-288.0528259277344	1303.481689453125	-1248.10009765625	-158.6280517578125	1184.514038085938	-1386.460205078125	-122.8296890258789	1215.478637695313	-1372.578491210938	-91.29722595214845	1172.153930664063	-1399.610107421875	-33.9724349975586	1172.709228515625	-1401.072875976563	-34.18058395385743	1105.513427734375	-1359.72216796875	228.1922149658204	1171.95166015625	-1345.453735351563	235.3209533691407	1145.897216796875	-1418.664306640625	317.7940979003907	1190.679809570313	-1371.584350585938	-272.8082580566407	1300.957763671875	-964.790222167969	-126.1820297241211	1196.924560546875	-831.0086669921877	-91.74318695068361	1228.083862304688	-842.5474243164065	-58.26971435546876	1183.189819335938	-816.8135375976565	-13.36928749084473	1179.218139648438	-817.948181152344	-12.79822540283203	1121.988647460938	-867.2153320312502	248.2991027832032	1251.293090820313	-910.3286132812502	253.7296447753907	1210.1513671875	-842.2589111328127	323.9100952148438	1282.149291992188	-891.846130371094	-366.7500610351563	814.045593261719	-1180.260498046875	-349.8135070800782	851.9844360351565	-934.3643188476565	-535.2559204101564	914.8958129882815	-1059.171997070313	-545.9210205078126	879.745300292969	-1083.366943359375	-540.1459960937501	885.8503417968752	-1026.710693359375	-326.6581726074219	605.8378906250001	-1250.248291015625	-245.2921905517579	579.1614990234376	-1251.674682617188	-216.3428802490235	616.5302124023439	-1249.66357421875	-222.1055908203126	525.1223754882814	-1235.931396484375	-120.9018859863282	434.8660888671876	-1209.627075195313	-87.28151702880861	465.9202575683595	-1077.297241210938	-137.5819549560547	297.4676513671876	-1120.447998046875	-203.2120361328126	264.5086364746094	-1170.393798828125	-173.2109069824219	253.8852996826172	-1140.322509765625	-215.2729949951172	202.1085357666016	-1089.107177734375	-335.6254577636719	105.9729080200196	-1106.494384765625	-298.3855895996094	137.4991302490235	-1018.878112792969	-406.4493713378907	105.9986419677735	-1040.593017578125	-197.9481048583985	58.85559082031251	-1020.775268554688	-189.1372222900391	53.07893753051759	-1069.428100585938	-242.1381530761719	35.76664352416993	-1119.329956054688	-225.3666076660157	657.1812133789064	-828.0142822265627	-158.8712463378907	664.8200073242189	-833.3845214843752	-143.5718383789063	692.7887573242189	-843.6304321289065	-104.8586044311524	601.5078735351564	-844.520446777344	-46.30872344970704	543.0848999023439	-849.8013305664065	-20.81182670593262	572.9252929687501	-980.3066406250002	49.1473846435547	474.7942504882814	-858.4461669921877	16.77679824829102	377.5776977539063	-828.0904541015627	60.32448577880861	390.2486267089845	-837.950622558594	93.35314178466798	351.5999450683594	-865.2717285156252	108.7892150878907	168.2356719970703	-849.3406982421877	142.7911529541016	195.2832794189454	-933.3047485351565	70.3628387451172	112.7883987426758	-909.965759277344	285.2226257324219	172.4303741455078	-905.0108032226565	282.6452636718751	183.2718048095703	-858.6907348632815	238.9756317138672	150.6837921142578	-812.0413818359377	
